PathFileType	4	(X/Y/Z)	Patient4_TMGait_0pt2_02_left_21.trc.trc
DataRate	CameraRate	NumFrames	NumMarkers	Units	OrigDataRate	OrigDataStartFrame	OrigNumFrames
47.781569965870	47.781569965870	4	33	mm	47.781569965870	36	       141
Frame#	Time	R.Midfoot.Superior			Sacral			L.Shoulder			Chest			R.Shoulder			Neck			R.ASIS			L.ASIS			R.Thigh.Superior			R.Thigh.Lateral			R.Thigh.Inferior			R.Patella			L.Thigh.Superior			L.Thigh.Lateral			L.Thigh.Inferior			L.Patella			L.Shank.Superior			L.Shank.Lateral			L.Shank.Inferior			R.Shank.Superior			R.Shank.Lateral			R.Shank.Inferior			R.Heel			R.Midfoot.Lateral			R.Toe			L.Heel			L.Midfoot.Lateral			L.Midfoot.Superior			L.Toe			L.Elbow			L.Wrist			R.Elbow			R.Wrist			
		X1	Y1	Z1	X2	Y2	Z2	X3	Y3	Z3	X4	Y4	Z4	X5	Y5	Z5	X6	Y6	Z6	X7	Y7	Z7	X8	Y8	Z8	X9	Y9	Z9	X10	Y10	Z10	X11	Y11	Z11	X12	Y12	Z12	X13	Y13	Z13	X14	Y14	Z14	X15	Y15	Z15	X16	Y16	Z16	X17	Y17	Z17	X18	Y18	Z18	X19	Y19	Z19	X20	Y20	Z20	X21	Y21	Z21	X22	Y22	Z22	X23	Y23	Z23	X24	Y24	Z24	X25	Y25	Z25	X26	Y26	Z26	X27	Y27	Z27	X28	Y28	Z28	X29	Y29	Z29	X30	Y30	Z30	X31	Y31	Z31	X32	Y32	Z32	X33	Y33	Z33	

36	48.282500000000	1011.217727195135	99.016734899897	624.462815688463	954.109575603542	1005.898444046469	549.019385194326	1084.526947667909	1428.610974757315	331.590769986676	1227.020519502636	1357.379537289014	458.245723666829	1195.148733376077	1435.706284166647	644.227785408425	1113.420304865171	1490.697038623955	484.878153957639	1197.891160125272	932.001845043689	621.428595496884	1136.488076937829	958.690048802892	353.896606610494	1192.067058557562	720.141851246258	593.615984824819	1099.179329603500	623.378515663334	667.631007758227	1151.000325023209	558.893172947576	580.919463812061	1132.537637886461	468.746463649286	590.382300547111	1211.283226536933	764.942119442907	380.603194510839	1141.568482704689	636.257190652400	317.634335145538	1242.406799935681	572.402384550375	372.309008792336	1253.537917582838	502.379627642542	375.380855609405	1232.921985203733	428.925850183212	364.425558256120	1151.613160828872	309.596555437181	310.816875042639	1218.214494870076	199.047676669197	370.140835261837	1082.277716201057	389.240517573571	602.947463321338	993.509303577156	306.673048249629	675.007279797713	1004.237628027852	204.122905004414	612.049476427453	835.541245232976	60.558853615062	594.488549583687	920.355899382265	45.893797998846	666.194527887648	1127.309643920162	39.300185121025	650.548300312841	1103.151770242879	38.930460423422	404.781203804568	1177.435922360242	37.176832327478	324.478744444450	1260.004270063682	98.530864425441	351.689122135015	1388.089587584822	49.214713911474	323.244287863744	931.173704903644	1112.995015367094	244.263392626299	904.591300867356	853.450498534630	277.728898285593	1437.600048081343	1211.856340011947	724.978562410664	1654.698798861460	1307.859585097899	620.919759841536	
37	48.303428571429	1008.154738269694	99.454088945132	624.767982717739	954.596620975162	1007.500339958391	541.600444296963	1088.477539253146	1429.653272167238	325.107464043122	1229.529252846139	1358.108977287519	453.170984401025	1195.910234621658	1436.543006307584	638.839514646684	1115.695267729725	1491.771381731266	478.809399873988	1197.519307684918	933.020993938376	616.437125411918	1138.623503224535	959.079419475421	348.355642238159	1191.221910651168	721.052535833962	590.276447796857	1097.560484212334	625.165081353088	664.506536201529	1150.193498785526	559.687210178422	578.879861453212	1131.556045612357	469.390398481950	589.080169674409	1211.820372705895	764.755098870505	375.874734121577	1141.223504368568	636.334128722492	313.440761478341	1241.420794367574	572.055184800018	368.632677665311	1251.974477999673	501.960851464653	372.323132874640	1231.128783901900	428.453506975218	361.832976699447	1149.372456486081	309.202207684153	308.930057806795	1215.058015171416	198.776827612963	369.329013858597	1080.651282910750	390.534514386594	601.832130277630	990.743404580755	309.239179253913	674.014092377340	1001.567077415258	205.896606786094	611.962399111926	831.860818974481	63.392090979883	594.787746802205	916.607298861842	47.302734773777	666.354715048080	1123.385287213488	39.086706884978	650.568899150598	1099.043134274785	38.995947791482	404.764126852671	1173.270482464594	37.169990413257	324.390955779842	1255.932388954378	98.413166235333	351.570237400089	1383.999588830423	48.866842434045	323.102867615908	937.746785026536	1113.396941507725	234.023864084417	914.154738552801	853.271835913471	265.227430054114	1436.914503142961	1211.024138747937	720.464971623743	1658.499613383976	1300.527731805522	619.191288565596	
38	48.324357142857	1005.353415391687	99.863310422731	625.121429605125	954.971360549268	1009.068399339177	534.025670030907	1092.558976540706	1430.711296371842	318.600120389416	1231.940063512389	1358.871235639475	448.278468913452	1196.303383104325	1437.418039053519	633.558522520795	1117.864650821461	1492.880681283885	472.735161796212	1196.965504352641	934.149949085093	611.473814570365	1140.744125844055	959.454898043123	342.837336540723	1190.725573419615	722.116239796522	586.951789476117	1096.515925368079	626.890984147073	661.323311898910	1150.278239388015	560.517381002945	576.854951372166	1131.649501873761	469.852007676864	587.900386697695	1212.169943212827	764.425062223600	371.005122195444	1140.481294935819	636.355909533523	309.185294081166	1239.972508297952	571.591822448280	364.879763230340	1249.866250766730	501.508267628711	369.201796239502	1228.882680522848	427.972942006178	359.181725859686	1146.768899997421	308.717142944456	306.986891780363	1211.728176940677	198.516395115635	368.483780205550	1079.846389248275	391.777097922815	600.767866151769	988.553904118973	311.981426021870	672.995453469503	999.355108094800	207.780330758793	611.932348312223	828.368703730632	66.609638863543	595.131028921901	912.973981761083	48.888637058719	666.549643871203	1119.510180294608	38.825387103291	650.578901498003	1094.885294698168	38.983958359672	404.738768345348	1169.064625910814	37.116890362587	324.294739865803	1251.794985699875	98.293314134094	351.440542366348	1379.859128940721	48.581872636577	322.977016140806	944.906235691705	1113.603478508177	223.754776001413	924.508203302185	852.957291757526	252.776055707374	1435.376294789195	1209.600195337123	716.468210016967	1661.773660071032	1291.507332239873	618.684206587154	
39	48.345285714286	1002.877491767123	100.272933271258	625.514714158476	955.249540334247	1010.575305989855	526.349224152438	1096.683882423981	1431.782927387154	312.129843310916	1234.192708342080	1359.678707163898	443.596400743609	1196.289801990611	1438.339813816531	628.405788122697	1119.858042979276	1494.017526810900	466.699510967432	1196.256293703642	935.378626548706	606.555336800402	1142.841664221111	959.838733697113	337.372265656857	1190.698671544571	723.331783205585	583.619346625915	1096.221594113884	628.504081848632	658.053451421726	1151.433920480493	561.376583975741	574.785918179064	1133.018868004119	470.099001333047	586.790066155313	1212.368385170597	763.985658135252	366.068333933160	1139.429477166720	636.342928164364	304.905041306757	1238.133517849690	571.040206692670	361.119756205286	1247.295591325967	501.037665503804	366.073085893174	1226.252122419457	427.498649419357	356.515347336468	1143.863236534213	308.169269337583	305.010553382537	1208.253762106040	198.275863288486	367.627179689080	1080.046778007267	392.943686166471	599.702962159124	987.140056834992	314.908941307388	671.913868465338	997.726339441528	209.793721732434	611.922867148926	825.161546791741	70.350584278162	595.498886328171	909.512429106966	50.757755446693	666.769359828601	1115.691328518541	38.480370921500	650.583346203347	1090.691261610266	38.913213780870	404.708197043356	1164.830382913771	37.029700653858	324.193616843870	1247.603247821566	98.182609730600	351.302141327866	1375.677419421517	48.377053452607	322.868153481851	952.664266014573	1113.573791624102	213.538469531854	935.775920973921	852.462461869078	240.426824237321	1432.889350783283	1207.490841834831	712.973071441137	1664.300728255655	1280.588863789352	619.466514453758	
